<svg version="1.1" id="Layer_1" xmlns="http://www.w3.org/2000/svg" xmlns:xlink="http://www.w3.org/1999/xlink" x="0px" y="0px" viewBox="0 0 432 432" style="enable-background:new 0 0 432 432;" xml:space="preserve">
<style type="text/css">
	.st0{fill:#231F20;}
</style>
<g id="XMLID_23_">
	<g id="XMLID_244_">
		<path id="XMLID_356_" class="st0" d="M309.91,257.67h-9.79c-0.95,0-1.72,0.77-1.72,1.72v55.27l-26.14-56
			c-0.28-0.6-0.89-0.99-1.56-0.99h-11.84c-0.95,0-1.73,0.77-1.73,1.72v79.32c0,0.95,0.78,1.72,1.73,1.72h9.79
			c0.95,0,1.72-0.77,1.72-1.72v-55.27l26.14,56c0.28,0.6,0.89,0.99,1.56,0.99h11.84c0.95,0,1.72-0.77,1.72-1.72V259.4
			C311.64,258.45,310.87,257.67,309.91,257.67"></path>
		<path id="XMLID_353_" class="st0" d="M211.53,292.44h-16.51v-22.23h16.51c6.57,0,10.64,4.26,10.64,11.11
			S218.1,292.44,211.53,292.44 M235.18,281.32c0-11.77-7.35-23.65-23.77-23.65H183.5c-0.95,0-1.73,0.77-1.73,1.72v79.32
			c0,0.95,0.78,1.72,1.73,1.72h9.79c0.95,0,1.72-0.77,1.72-1.72v-33.75h7.29l17.26,34.52c0.29,0.58,0.89,0.95,1.54,0.95h11.22
			c0.6,0,1.16-0.31,1.48-0.83c0.31-0.51,0.33-1.16,0.05-1.69l-17.48-33.42C225.47,302.7,235.18,295.67,235.18,281.32"></path>
		<path id="XMLID_350_" class="st0" d="M371.24,328.62c-15.64,0-27.43-12.71-27.43-29.56s11.79-29.56,27.43-29.56
			s27.43,12.71,27.43,29.56S386.88,328.62,371.24,328.62 M371.24,256.97c-22.94,0-40.91,18.49-40.91,42.09s17.97,42.09,40.91,42.09
			s40.91-18.49,40.91-42.09S394.18,256.97,371.24,256.97"></path>
		<path id="XMLID_349_" class="st0" d="M67.74,257.67H21.57c-0.95,0-1.72,0.77-1.72,1.72v79.32c0,0.95,0.77,1.72,1.72,1.72h9.79
			c0.95,0,1.72-0.77,1.72-1.72v-33.75h21.23c0.95,0,1.72-0.77,1.72-1.72v-9.08c0-0.95-0.77-1.72-1.72-1.72H33.09v-22.23h34.64
			c0.95,0,1.72-0.77,1.72-1.72v-9.08C69.46,258.45,68.69,257.67,67.74,257.67"></path>
		<path id="XMLID_346_" class="st0" d="M122.07,328.62c-15.64,0-27.43-12.71-27.43-29.56s11.79-29.56,27.43-29.56
			s27.43,12.71,27.43,29.56S137.71,328.62,122.07,328.62 M122.07,256.97c-22.94,0-40.91,18.49-40.91,42.09s17.97,42.09,40.91,42.09
			s40.91-18.49,40.91-42.09S145.01,256.97,122.07,256.97"></path>
		<path id="XMLID_345_" class="st0" d="M67.77,215.93H21.51c-0.92,0-1.66-0.74-1.66-1.66v-9.45v-9.45c0-0.92,0.74-1.66,1.66-1.66
			h46.26c0.92,0,1.66,0.74,1.66,1.66v9.45v9.45C69.43,215.19,68.69,215.93,67.77,215.93"></path>
		<path id="XMLID_344_" class="st0" d="M72.23,164.32l-43.44-15.91c-0.86-0.32-1.3-1.27-0.99-2.13l3.25-8.87l3.25-8.87
			c0.32-0.86,1.27-1.3,2.13-0.99l43.44,15.91c0.86,0.32,1.3,1.27,0.99,2.13l-3.25,8.87l-3.25,8.87
			C74.04,164.2,73.09,164.64,72.23,164.32"></path>
		<path id="XMLID_343_" class="st0" d="M94.68,117.4L59.2,87.71c-0.7-0.59-0.79-1.64-0.21-2.34l6.06-7.25l6.06-7.25
			c0.59-0.7,1.64-0.79,2.34-0.21l35.47,29.69c0.71,0.59,0.8,1.64,0.21,2.34l-6.06,7.25l-6.06,7.24
			C96.43,117.89,95.38,117.99,94.68,117.4"></path>
		<path id="XMLID_342_" class="st0" d="M132.07,80.99l-23.61-39.78c-0.47-0.79-0.21-1.8,0.58-2.27l8.12-4.82l8.13-4.82
			c0.79-0.47,1.81-0.21,2.27,0.58l23.61,39.78c0.47,0.79,0.21,1.81-0.58,2.28l-8.13,4.82l-8.13,4.82
			C133.55,82.04,132.53,81.78,132.07,80.99"></path>
		<path id="XMLID_341_" class="st0" d="M178.65,59.83l-8.22-45.52c-0.16-0.9,0.43-1.76,1.34-1.93l9.3-1.68l9.3-1.68
			c0.9-0.16,1.77,0.43,1.93,1.34l8.22,45.52c0.16,0.9-0.43,1.77-1.34,1.93l-9.3,1.68l-9.3,1.68
			C179.68,61.34,178.82,60.74,178.65,59.83"></path>
		<path id="XMLID_340_" class="st0" d="M362.86,215.93h46.26c0.92,0,1.66-0.74,1.66-1.66v-9.45v-9.45c0-0.92-0.74-1.66-1.66-1.66
			h-46.26c-0.92,0-1.66,0.74-1.66,1.66v9.45v9.45C361.2,215.19,361.94,215.93,362.86,215.93"></path>
		<path id="XMLID_339_" class="st0" d="M358.4,164.32l43.44-15.91c0.86-0.32,1.3-1.27,0.99-2.13l-3.25-8.87l-3.25-8.87
			c-0.32-0.86-1.27-1.3-2.13-0.99l-43.44,15.91c-0.86,0.32-1.3,1.27-0.99,2.13l3.25,8.87l3.25,8.87
			C356.58,164.2,357.54,164.64,358.4,164.32"></path>
		<path id="XMLID_338_" class="st0" d="M335.95,117.4l35.47-29.69c0.7-0.59,0.79-1.64,0.21-2.34l-6.06-7.25l-6.06-7.25
			c-0.59-0.7-1.64-0.79-2.34-0.21l-35.47,29.69c-0.71,0.59-0.8,1.64-0.21,2.34l6.06,7.25l6.06,7.24
			C334.2,117.89,335.25,117.99,335.95,117.4"></path>
		<path id="XMLID_337_" class="st0" d="M298.56,80.99l23.61-39.78c0.47-0.79,0.21-1.8-0.58-2.27l-8.12-4.82l-8.13-4.82
			c-0.79-0.47-1.81-0.21-2.27,0.58l-23.61,39.78c-0.47,0.79-0.21,1.81,0.58,2.28l8.13,4.82l8.13,4.82
			C297.08,82.04,298.09,81.78,298.56,80.99"></path>
		<path id="XMLID_336_" class="st0" d="M251.98,59.83l8.22-45.52c0.16-0.9-0.43-1.76-1.34-1.93l-9.3-1.68l-9.3-1.68
			c-0.9-0.16-1.77,0.43-1.93,1.34l-8.23,45.52c-0.16,0.9,0.44,1.77,1.34,1.93l9.3,1.68l9.3,1.68
			C250.95,61.34,251.81,60.74,251.98,59.83"></path>
		<path id="XMLID_335_" class="st0" d="M196.09,202.34c0,0-7.16,7.64-15.91,4.94c0,0-3.34-0.74-4.13-3.17
			c-0.48-1.49,2.82-4.6,9.62-5.16C192.49,198.37,194.91,201.09,196.09,202.34"></path>
		<path id="XMLID_332_" class="st0" d="M189.35,200.14c-1.01-0.12-2.18-0.15-3.56-0.04c-5.93,0.5-8.57,2.97-8.59,3.69
			c0.55,1.69,3.23,2.32,3.25,2.33c6.39,1.98,11.93-2.06,13.97-3.82C193.45,201.44,191.97,200.47,189.35,200.14 M182.33,208.93
			c-0.81-0.1-1.64-0.27-2.49-0.53c-0.07-0.01-3.91-0.89-4.9-3.93c-0.16-0.51-0.21-1.32,0.47-2.34c1.14-1.71,4.49-3.88,10.18-4.35
			c7.24-0.6,9.97,2.3,11.29,3.69l0.76,0.8l-0.69,0.88C196.66,203.44,190.47,209.92,182.33,208.93"></path>
		<path id="XMLID_331_" class="st0" d="M180.46,192.59c0,0-9.22,6.25-16.71,2.53c0,0-2.9-1.15-3.26-3.48
			c-0.22-1.43,4.82-3.68,11.04-3.21C177.74,188.9,179.58,191.29,180.46,192.59"></path>
		<path id="XMLID_328_" class="st0" d="M169.82,189.44c-4.74,0-7.97,1.59-8.29,2.24c0.23,1.19,1.97,2.18,2.62,2.44
			c5.56,2.76,12.26-0.43,14.73-1.83c-0.98-1.08-2.96-2.46-7.43-2.79C170.88,189.46,170.34,189.44,169.82,189.44 M169.07,197.39
			c-1.92,0-3.9-0.36-5.8-1.3c-0.06-0.02-3.4-1.38-3.85-4.28c-0.07-0.4-0.01-1.02,0.61-1.69c1.54-1.67,6.29-3.15,11.57-2.75
			c6.17,0.47,8.45,2.72,9.75,4.63l0.6,0.89l-0.89,0.61C180.76,193.69,175.21,197.39,169.07,197.39"></path>
		<path id="XMLID_327_" class="st0" d="M212.54,169.93c0,0-8.22,0.91-11.65-7.28c0,0-1.53-2.95-0.21-5.05
			c0.81-1.29,2.91-1.94,7.57,2.78C212.91,165.1,212.73,168.28,212.54,169.93"></path>
		<path id="XMLID_324_" class="st0" d="M202.39,157.8c-0.05,0-0.09,0-0.13,0.01c-0.18,0.02-0.41,0.08-0.61,0.4
			c-0.79,1.26-0.08,3.25,0.25,3.92c2.44,5.81,7.49,6.62,9.58,6.69c0.01-1.52-0.52-4.08-4.03-7.64
			C204.51,158.21,203,157.8,202.39,157.8 M211.91,171.1c-2.26,0-8.99-0.64-12.07-8.01c-0.03-0.06-1.77-3.47-0.12-6.1
			c0.52-0.83,1.34-1.35,2.29-1.45c1.86-0.21,4.17,1.12,7.05,4.03c4.62,4.67,4.89,8.06,4.61,10.48l-0.11,0.9l-0.9,0.1
			C212.66,171.07,212.37,171.1,211.91,171.1"></path>
		<path id="XMLID_323_" class="st0" d="M212.62,154.1c0,0-6.05,0.57-8.47-5.49c0,0-1.09-2.18-0.09-3.71
			c0.61-0.94,2.17-1.39,5.53,2.13C212.95,150.55,212.78,152.89,212.62,154.1"></path>
		<path id="XMLID_320_" class="st0" d="M205.18,145.28c-0.09,0.02-0.17,0.07-0.25,0.19c-0.65,0.99,0.14,2.67,0.15,2.68
			c1.63,4.05,4.98,4.8,6.58,4.91c-0.03-1.1-0.48-2.87-2.82-5.31c-2.29-2.4-3.34-2.5-3.61-2.48c-0.01,0-0.03,0-0.03,0 M213.54,155.06
			l-0.82,0.08c-2.36,0.22-7.39-0.77-9.54-6.14c-0.02-0.04-1.3-2.67,0.01-4.67c0.43-0.66,1.09-1.06,1.85-1.13
			c1.44-0.13,3.17,0.88,5.3,3.11c3.39,3.55,3.55,6.1,3.31,7.93L213.54,155.06z"></path>
		<path id="XMLID_319_" class="st0" d="M166.59,181.99c0,0-6.85,4.98-12.42,2.01c0,0-2.16-0.92-2.43-2.77
			c-0.16-1.14,3.59-2.93,8.2-2.55C164.56,179.05,165.93,180.96,166.59,181.99"></path>
		<path id="XMLID_316_" class="st0" d="M152.75,181.26c0.26,0.93,1.36,1.59,1.79,1.78c3.93,2.09,8.64-0.18,10.59-1.33
			c-0.76-0.8-2.21-1.75-5.25-1.99C156.2,179.41,153.32,180.61,152.75,181.26 M158.12,185.99c-1.45,0-2.94-0.29-4.38-1.05
			c-0.03-0.01-2.61-1.13-2.95-3.55c-0.05-0.36-0.01-0.91,0.5-1.5c1.17-1.36,4.74-2.57,8.74-2.25c4.65,0.38,6.39,2.21,7.38,3.77
			l0.55,0.87l-0.81,0.59C166.91,183.02,162.74,185.99,158.12,185.99"></path>
		<path id="XMLID_315_" class="st0" d="M211.37,207.6c0,0-2.64,7.68-9.28,6.98c0,0-2.43-0.04-3.84-1.78
			c-0.87-1.06,1.18-4.34,5.35-5.82C207.77,205.5,210.15,206.84,211.37,207.6"></path>
		<path id="XMLID_312_" class="st0" d="M207.14,207.45c-0.89,0-1.93,0.16-3.17,0.6c-3.37,1.2-4.87,3.55-4.78,4.15
			c0.99,1.17,2.9,1.24,2.9,1.24c4.53,0.5,6.97-3.54,7.83-5.36C209.26,207.76,208.36,207.45,207.14,207.45 M202.92,215.76
			c-0.31,0-0.62-0.02-0.95-0.05c-0.03-0.01-2.87-0.08-4.6-2.19c-0.46-0.55-0.57-1.33-0.34-2.17c0.49-1.74,2.63-4.18,6.18-5.44
			c4.84-1.73,7.69,0.06,8.76,0.73l0.77,0.48l-0.3,0.86C211.49,210.76,208.31,215.76,202.92,215.76"></path>
		<path id="XMLID_311_" class="st0" d="M169.01,175.51c0,0-5.12-4.76-3.94-9.97c0,0,0.51-2.39,2.11-2.6
			c1.68-0.22,3.27,1.85,3.64,6.34C171.14,173.24,169.67,174.76,169.01,175.51"></path>
		<path id="XMLID_308_" class="st0" d="M167.69,163.96c-0.13-0.04-0.26-0.06-0.39-0.04c-0.67,0.09-1.15,1.27-1.27,1.82
			c-0.78,3.44,1.65,6.79,2.93,8.26c0.54-0.83,1.08-2.19,0.88-4.63c-0.2-2.52-0.86-4.45-1.75-5.18
			C167.95,164.08,167.82,164.01,167.69,163.96 M169.12,176.86l-0.78-0.62c-0.23-0.21-5.52-5.22-4.24-10.91
			c0.24-1.13,1.14-3.13,2.95-3.37c0.8-0.1,1.59,0.14,2.27,0.69c1.36,1.11,2.22,3.38,2.48,6.55c0.34,4.28-1.24,6.06-2.01,6.91
			L169.12,176.86z"></path>
		<path id="XMLID_307_" class="st0" d="M213.18,201.97c0,0-7.9-0.09-10.7-5.37c0,0-1.31-2.41-0.08-3.81
			c1.29-1.47,4.17-0.95,7.78,2.55C213.35,198.44,213.2,200.84,213.18,201.97"></path>
		<path id="XMLID_304_" class="st0" d="M204.22,193.06c0,0-0.06,0-0.09,0c-0.42,0.01-0.74,0.15-0.97,0.41
			c-0.61,0.69-0.03,2.17,0.22,2.64c1.9,3.58,6.61,4.51,8.74,4.74c-0.11-1.14-0.61-2.76-2.67-4.76
			C206.67,193.39,204.92,193.06,204.22,193.06 M213.16,203.01c-0.35,0-8.55-0.16-11.6-5.92c-0.06-0.11-1.63-3.05,0.05-4.97
			c0.61-0.69,1.45-1.08,2.44-1.12c1.96-0.04,4.32,1.17,6.83,3.62c3.41,3.32,3.35,6,3.32,7.29l-0.02,1.02L213.16,203.01z"></path>
		<path id="XMLID_303_" class="st0" d="M219.3,201.71c0,0,7.88-0.76,10.22-6.28c0,0,1.1-2.52-0.24-3.81
			c-1.41-1.36-4.25-0.59-7.55,3.22C218.82,198.19,219.18,200.58,219.3,201.71"></path>
		<path id="XMLID_300_" class="st0" d="M227.64,192.14c-0.03,0-0.05,0-0.09,0c-0.62,0.03-2.35,0.42-4.97,3.44
			c-1.79,2.07-2.19,3.67-2.23,4.79c2.14-0.44,6.57-1.77,8.11-5.39c0.16-0.39,0.65-1.93,0.02-2.54
			C228.27,192.24,228,192.14,227.64,192.14 M218.28,202.95l-0.12-1.12l1.13-0.12l-1.14,0.02c-0.14-1.3-0.43-4,2.72-7.64
			c2.32-2.68,4.6-4.14,6.59-4.23c1.04-0.06,1.92,0.28,2.61,0.94c1.51,1.46,1.02,3.88,0.5,5.08c-2.57,6.06-10.81,6.92-11.16,6.95
			L218.28,202.95z"></path>
		<path id="XMLID_299_" class="st0" d="M179.93,185.5c0,0-6.62-7.09-4.51-14.12c0,0,0.94-3.23,3.17-3.35
			c2.35-0.12,4.35,2.9,4.42,9.11C183.08,182.61,180.91,184.54,179.93,185.5"></path>
		<path id="XMLID_296_" class="st0" d="M179.03,169.19c-0.13-0.03-0.25-0.04-0.38-0.03c-1.14,0.06-1.94,1.89-2.13,2.53
			c-1.49,4.94,1.89,10.05,3.48,12.1c0.9-1.08,1.92-2.94,1.88-6.64c-0.06-5.11-1.42-6.93-2.01-7.48
			C179.6,169.42,179.32,169.26,179.03,169.19 M179.97,187.04l-0.88-0.77c-0.29-0.31-7.04-7.66-4.76-15.23c0.04-0.15,1.2-4,4.19-4.15
			c1.06-0.06,2.06,0.33,2.9,1.12c1.73,1.62,2.67,4.77,2.73,9.11c0.07,5.82-2.24,8.05-3.35,9.12L179.97,187.04z"></path>
		<path id="XMLID_295_" class="st0" d="M218.98,169.39c0,0,1.59-9.58,8.43-12.14c0,0,3.12-1.2,4.56,0.51
			c1.52,1.8,0.35,5.23-4.52,9.04C223.17,170.17,220.33,169.6,218.98,169.39"></path>
		<path id="XMLID_292_" class="st0" d="M220.37,168.41c1.39,0.08,3.49-0.23,6.39-2.51c3.99-3.13,4.61-5.32,4.69-6.11
			c0.05-0.54-0.06-0.96-0.34-1.3c-0.74-0.88-2.67-0.41-3.29-0.18C223.01,160.11,221.02,165.91,220.37,168.41 M220.74,170.7
			c-0.76,0-1.37-0.1-1.83-0.17l-1.13-0.18l0.08-1.15c0.07-0.42,1.78-10.26,9.16-13.02c0.15-0.06,3.9-1.47,5.83,0.84
			c0.68,0.81,0.99,1.85,0.87,3c-0.24,2.36-2.16,5.01-5.55,7.67C224.98,170.19,222.48,170.7,220.74,170.7"></path>
		<path id="XMLID_291_" class="st0" d="M212.45,186.05c0,0-8.11,0.9-11.49-7.18c0,0-1.51-2.91-0.2-4.98
			c0.8-1.27,2.87-1.91,7.46,2.74C212.82,181.28,212.64,184.42,212.45,186.05"></path>
		<path id="XMLID_288_" class="st0" d="M202.44,174.14c-0.04,0-0.09,0-0.12,0.01c-0.17,0.02-0.38,0.08-0.56,0.37
			c-0.77,1.22-0.06,3.21,0.25,3.8c2.39,5.7,7.25,6.51,9.33,6.58c-0.01-1.5-0.55-3.99-3.96-7.44
			C204.51,174.54,203.03,174.14,202.44,174.14 M211.83,187.26c-2.24,0-8.91-0.64-11.96-7.93c-0.03-0.05-1.76-3.45-0.11-6.07
			c0.53-0.84,1.35-1.36,2.3-1.46c1.86-0.18,4.15,1.11,7.01,4c4.57,4.63,4.84,7.99,4.56,10.39l-0.11,0.94l-0.94,0.1
			C212.57,187.23,212.29,187.26,211.83,187.26"></path>
		<path id="XMLID_287_" class="st0" d="M219.14,185.94c0,0,0.66-9.32,6.98-12.38c0,0,2.88-1.43,4.41,0.07
			c1.62,1.59,0.8,4.97-3.51,9.06C223.22,186.31,220.45,186.02,219.14,185.94"></path>
		<path id="XMLID_284_" class="st0" d="M220.43,184.83c1.35-0.05,3.29-0.56,5.81-2.96c3.52-3.35,3.92-5.48,3.92-6.24
			c0.01-0.51-0.13-0.89-0.43-1.18c-0.77-0.76-2.55-0.14-3.11,0.13C222.23,176.71,220.84,182.36,220.43,184.83 M220.95,187.08
			c-0.73,0.07-1.33,0.03-1.77,0l-1.14-0.07l-0.03-1.15c0.03-0.4,0.78-10.01,7.62-13.33c0.14-0.07,3.63-1.76,5.71,0.29
			c0.74,0.73,1.12,1.7,1.11,2.83c-0.02,2.29-1.62,5.01-4.64,7.87C224.98,186.21,222.62,186.93,220.95,187.08"></path>
		<path id="XMLID_283_" class="st0" d="M193.62,193.76c0,0-7.15-5.59-6.18-12.35c0,0,0.41-3.1,2.46-3.52
			c2.16-0.44,4.44,2.05,5.39,7.75C196.13,190.67,194.4,192.75,193.62,193.76"></path>
		<path id="XMLID_280_" class="st0" d="M190.38,179.01c-0.09,0-0.17,0.01-0.25,0.03c-1.02,0.21-1.47,2.04-1.53,2.52
			c-0.66,4.61,3.04,8.75,4.82,10.45c0.65-1.11,1.27-2.93,0.72-6.18c-0.77-4.63-2.26-6.1-2.87-6.52
			C190.96,179.12,190.67,179.01,190.38,179.01 M193.89,195.32l-0.99-0.64c-0.32-0.24-7.67-6.09-6.62-13.43
			c0.19-1.45,1.12-4.04,3.38-4.5c1.01-0.2,2.01,0.02,2.93,0.65c1.85,1.27,3.18,4.06,3.85,8.05c0.9,5.39-0.94,7.78-1.83,8.93
			L193.89,195.32z"></path>
		<path id="XMLID_279_" class="st0" d="M219.2,153.8c0,0,7.14-0.29,9.64-6.01c0,0,1.11-2.05,0.2-3.55
			c-0.56-0.91-3.63-0.59-6.95,2.67C218.76,150.18,219.09,152.64,219.2,153.8"></path>
		<path id="XMLID_276_" class="st0" d="M228.12,144.8c-0.28-0.07-2.49,0.13-5.28,2.88c-2.15,2.11-2.59,3.76-2.63,4.92
			c1.93-0.33,5.99-1.46,7.65-5.24C228.12,146.87,228.6,145.59,228.12,144.8L228.12,144.8z M218.24,154.91l-0.1-1l1.06-0.11
			l-1.07,0.03c-0.13-1.24-0.42-4.13,3.21-7.69c2.85-2.79,5.49-3.58,7.01-3.39c0.74,0.09,1.3,0.42,1.61,0.93
			c1.2,1.96-0.03,4.35-0.17,4.61c-2.7,6.18-10.22,6.55-10.54,6.57L218.24,154.91z"></path>
		<path id="XMLID_275_" class="st0" d="M236.08,199.76c0,0,6.21,8.49,15.26,6.86c0,0,3.42-0.33,4.5-2.66
			c0.66-1.43-2.25-4.92-8.97-6.32C240.16,196.25,237.41,198.66,236.08,199.76"></path>
		<path id="XMLID_272_" class="st0" d="M237.77,199.94c1.81,2.01,6.88,6.68,13.36,5.52c0.86-0.09,3-0.6,3.64-2
			c0.04-0.66-2.28-3.45-8.14-4.67C241.73,197.78,239.22,198.9,237.77,199.94 M248.94,208.02c-8.17,0-13.57-7.22-13.81-7.56
			l-0.65-0.9l0.85-0.71l0.75,0.91l-0.68-0.97c1.48-1.23,4.57-3.79,11.71-2.3c5.61,1.16,8.69,3.73,9.62,5.58
			c0.55,1.1,0.4,1.9,0.17,2.38c-1.35,2.91-5.29,3.32-5.46,3.34C250.59,207.94,249.75,208.02,248.94,208.02"></path>
		<path id="XMLID_271_" class="st0" d="M251.54,192.83c0,0,9.16,6.15,16.6,2.49c0,0,2.89-1.14,3.24-3.43
			c0.22-1.4-4.79-3.62-10.97-3.16C254.25,189.2,252.42,191.55,251.54,192.83"></path>
		<path id="XMLID_268_" class="st0" d="M253.24,192.52c2.52,1.39,9.04,4.41,14.4,1.78c0.69-0.28,2.27-1.17,2.59-2.42
			c-0.62-0.75-4.45-2.42-9.72-2.01C256.2,190.19,254.23,191.48,253.24,192.52 M262.87,197.65c-6.11,0-11.66-3.67-11.96-3.87
			l-0.96-0.64l0.65-0.95c1.3-1.89,3.58-4.13,9.73-4.58c5.29-0.38,10.02,1.08,11.55,2.74c0.63,0.68,0.68,1.31,0.62,1.73
			c-0.45,2.91-3.81,4.26-3.95,4.31C266.7,197.3,264.76,197.65,262.87,197.65"></path>
		<path id="XMLID_267_" class="st0" d="M263.49,182.82c0,0,8.52,4.6,14.71,0.77c0,0,2.42-1.24,2.54-3.27
			c0.07-1.25-4.49-2.76-9.84-1.83C265.54,179.41,264.15,181.63,263.49,182.82"></path>
		<path id="XMLID_264_" class="st0" d="M265.17,182.35c2.41,1.02,8.13,2.93,12.43,0.28c0.55-0.29,1.77-1.13,1.98-2.15
			c-0.75-0.63-4.21-1.6-8.49-0.86C267.57,180.22,265.97,181.4,265.17,182.35 M272.42,186.27c-4.86,0-9.22-2.31-9.47-2.46l-1.01-0.54
			l0.56-1.01c0.99-1.79,2.81-3.97,8.21-4.9c4.63-0.79,8.94,0.12,10.44,1.46c0.65,0.58,0.76,1.17,0.73,1.57
			c-0.15,2.65-3.04,4.15-3.16,4.22C276.72,185.84,274.52,186.27,272.42,186.27"></path>
		<path id="XMLID_263_" class="st0" d="M220.99,207.63c0,0,2.97,7.56,9.57,6.58c0,0,2.42-0.15,3.76-1.93
			c0.82-1.1-1.36-4.29-5.59-5.59C224.51,205.37,222.19,206.81,220.99,207.63"></path>
		<path id="XMLID_260_" class="st0" d="M222.45,208.05c0.92,1.78,3.51,5.67,7.94,5.03c0.11-0.01,2.02-0.16,3.02-1.49
			c0.01-0.48-1.6-2.77-5.02-3.82C225.42,206.85,223.57,207.44,222.45,208.05 M229.71,215.43c-5.3,0.22-8.7-4.64-9.78-7.39
			l-0.33-0.84l0.75-0.51c1.04-0.72,3.81-2.62,8.72-1.1c3.6,1.11,5.85,3.47,6.4,5.18c0.27,0.84,0.18,1.61-0.24,2.18
			c-1.64,2.18-4.49,2.38-4.61,2.39C230.32,215.39,230.01,215.42,229.71,215.43"></path>
		<path id="XMLID_259_" class="st0" d="M263.11,174.68c0,0,4.56-5.1,2.62-9.54c0,0-0.86-2.04-2.53-1.96
			c-1.75,0.09-3.08,2.2-2.82,6.26C260.62,173.02,262.33,174.13,263.11,174.68"></path>
		<path id="XMLID_256_" class="st0" d="M263.13,164.09c-0.24,0.03-0.47,0.15-0.68,0.36c-0.39,0.38-1.27,1.63-1.06,4.9
			c0.14,2.21,0.88,3.33,1.55,3.98c1.1-1.52,3.11-4.91,1.83-7.84c-0.13-0.31-0.79-1.45-1.55-1.41
			C263.2,164.08,263.16,164.08,263.13,164.09 M263.25,175.95l-0.79-0.56l0.65-0.71l-0.71,0.67c-0.9-0.63-2.77-1.95-3.02-5.82
			c-0.18-2.87,0.36-5.03,1.59-6.24c0.62-0.61,1.4-0.96,2.22-1c1.88-0.1,3.09,1.54,3.5,2.52c2.12,4.85-2.58,10.2-2.78,10.42
			L263.25,175.95z"></path>
		<path id="XMLID_255_" class="st0" d="M250.35,186.39c0,0,6.85-6.89,4.92-13.94c0,0-0.85-3.24-3.08-3.41
			c-2.35-0.18-4.44,2.77-4.7,8.95C247.27,183.45,249.39,185.42,250.35,186.39"></path>
		<path id="XMLID_252_" class="st0" d="M251.89,170.18c-0.36,0.02-0.7,0.18-1.04,0.48c-0.6,0.53-2.01,2.31-2.22,7.38
			c-0.15,3.68,0.82,5.56,1.7,6.66c1.65-2,5.19-7.01,3.84-11.94c-0.17-0.64-0.92-2.48-2.07-2.57
			C252.03,170.18,251.96,170.18,251.89,170.18 M250.35,188.01l-0.81-0.82l0.81-0.8l-0.89,0.72c-1.09-1.09-3.34-3.37-3.11-9.17
			c0.18-4.3,1.21-7.41,2.98-8.98c0.87-0.77,1.88-1.13,2.94-1.05c3.01,0.23,4.05,4.09,4.1,4.26c2.06,7.58-4.92,14.73-5.22,15.03
			L250.35,188.01z"></path>
		<path id="XMLID_251_" class="st0" d="M236.63,193.98c0,0,6.97-5.46,6.03-12.05c0,0-0.4-3.02-2.4-3.43c-2.11-0.43-4.33,2-5.27,7.56
			C234.18,190.97,235.87,192.99,236.63,193.98"></path>
		<path id="XMLID_248_" class="st0" d="M239.79,179.59c-0.28,0-0.57,0.1-0.87,0.3c-0.59,0.41-2.04,1.84-2.8,6.36
			c-0.53,3.17,0.07,4.94,0.71,6.03c1.74-1.66,5.35-5.7,4.7-10.19c-0.08-0.59-0.53-2.28-1.5-2.48
			C239.95,179.6,239.87,179.59,239.79,179.59 M236.42,195.59l-0.7-0.91l0.9-0.69l-0.97,0.61c-0.87-1.12-2.67-3.46-1.79-8.72
			c0.65-3.9,1.95-6.62,3.76-7.86c0.89-0.61,1.88-0.83,2.86-0.63c2.2,0.45,3.11,2.98,3.3,4.4c1.02,7.15-6.15,12.85-6.46,13.09
			L236.42,195.59z"></path>
		<path id="XMLID_247_" class="st0" d="M161.25,175.85c-8.02-4.66-8.94-12.46-8.97-12.79l1.92-0.21l-0.96,0.1l0.96-0.1
			c0.01,0.07,0.87,7.16,8.02,11.32L161.25,175.85z"></path>
		<path id="XMLID_246_" class="st0" d="M217,148.16l-1.93-0.05c0-0.11,0.17-10.59-6.15-16.16l1.28-1.46
			C217.21,136.68,217.01,147.7,217,148.16"></path>
		<path id="XMLID_245_" class="st0" d="M274.3,171.82l-1.32-1.41c0.28-0.26,6.83-6.32,12.85-7c0.09-0.01,0.18-0.02,0.28-0.03
			l0.16,1.93c-0.08,0.01-0.15,0.01-0.23,0.02C280.67,165.94,274.37,171.77,274.3,171.82"></path>
	</g>
	<g id="XMLID_228_">
		<path id="XMLID_242_" class="st0" d="M119.85,366.85c1.34,0,2.42,1.08,2.42,2.42v28.15c0,15.17-10.74,25.58-25.25,25.58
			s-25.25-10.41-25.25-25.58v-28.15c0-1.34,1.08-2.42,2.42-2.42h7.56c1.34,0,2.42,1.08,2.42,2.42l0,28.81
			c0,7.11,5.66,13.15,12.77,13.18c7.9,0.03,12.92-5.29,12.92-13.18v-28.81c0-1.34,1.08-2.42,2.42-2.42H119.85z"></path>
		<path id="XMLID_240_" class="st0" d="M140.24,366.85h7.56c1.34,0,2.42,1.08,2.42,2.42v41.33h25.62c1.34,0,2.42,1.08,2.42,2.42v6.9
			c0,1.34-1.08,2.42-2.42,2.42h-35.6c-1.34,0-2.42-1.08-2.42-2.42v-50.64C137.82,367.93,138.9,366.85,140.24,366.85z"></path>
		<path id="XMLID_238_" class="st0" d="M180.31,366.85h42.77c1.34,0,2.42,1.08,2.42,2.42v6.9c0,1.34-1.08,2.42-2.42,2.42H207.9
			v41.33c0,1.34-1.08,2.42-2.42,2.42h-7.56c-1.34,0-2.42-1.08-2.42-2.42v-41.33h-15.18c-1.34,0-2.42-1.08-2.42-2.42v-6.9
			C177.89,367.93,178.97,366.85,180.31,366.85z"></path>
		<path id="XMLID_236_" class="st0" d="M286.67,366.85c1.34,0,2.42,1.08,2.42,2.42v28.15c0,15.17-10.75,25.58-25.25,25.58
			c-14.51,0-25.25-10.41-25.25-25.58v-28.15c0-1.34,1.08-2.42,2.42-2.42h7.56c1.34,0,2.42,1.08,2.42,2.42l0,28.81
			c0,7.12,5.66,13.15,12.78,13.18c7.9,0.03,12.91-5.29,12.91-13.18v-28.81c0-1.34,1.08-2.42,2.42-2.42H286.67z"></path>
		<path id="XMLID_233_" class="st0" d="M332.39,401.95l-0.11-0.03c8.76-1.48,14.72-6.33,14.72-17.25c0-13.51-9.05-17.82-21.34-17.82
			h-18.9c-1.34,0-2.42,1.08-2.42,2.42v50.64c0,1.34,1.08,2.42,2.42,2.42h7.34c1.34,0,2.42-1.08,2.42-2.42v-17.43h3.06l11.55,18.89
			c0.37,0.6,1.02,0.96,1.73,0.96h10.91c0.84,0,1.34-0.93,0.88-1.64L332.39,401.95z M316.75,378.65h9.73c7.22,0,8.57,2.33,8.57,6.02
			c0,3.69-1.58,6.02-8.57,6.02h-9.73V378.65z"></path>
		<path id="XMLID_230_" class="st0" d="M411.38,421.01l-19.82-53.25c-0.2-0.55-0.72-0.91-1.3-0.91H380.1c-0.58,0-1.1,0.36-1.3,0.91
			l-19.9,53.25c-0.24,0.64,0.24,1.33,0.92,1.33h11.2c0.41,0,0.78-0.26,0.92-0.64l2.64-7.31h21.22l2.66,7.31
			c0.14,0.39,0.51,0.64,0.92,0.64h11.07C411.14,422.34,411.62,421.65,411.38,421.01z M378.56,403.41l6.62-18.31l6.65,18.31H378.56z"></path>
		<path id="XMLID_229_" class="st0" d="M57,420.49c0,1.34-1.08,2.42-2.42,2.42h-8.27c-15.08,0-26.46-12.05-26.46-28.03
			c0-15.98,11.38-28.03,26.46-28.03h8.27c1.34,0,2.42,1.08,2.42,2.42v7.57c0,1.34-1.08,2.42-2.42,2.42h-8.27
			c-8.14,0-14.05,6.57-14.05,15.62c0,9.05,5.91,15.62,14.05,15.62h8.27c1.34,0,2.42,1.08,2.42,2.42V420.49z"></path>
	</g>
</g>
</svg>
