<?xml version="1.0" encoding="iso-8859-1"?>
<!-- Generator: Adobe Illustrator 19.0.0, SVG Export Plug-In . SVG Version: 6.00 Build 0)  -->
<svg version="1.1" id="Layer_1" xmlns="http://www.w3.org/2000/svg" xmlns:xlink="http://www.w3.org/1999/xlink" x="0px" y="0px"
	 viewBox="0 0 512.002 512.002" xml:space="preserve">
<g >
		<path fill="white" d="M486.581,137.622l-6.03-6.03c20.953-27.383,18.932-66.826-6.1-91.859c-13.164-13.164-30.717-20.414-49.427-20.414
			c-15.571,0-30.331,5.037-42.436,14.31l-8.208-8.208c-33.896-33.896-89.047-33.896-122.943,0L25.422,251.44
			c-16.37,16.368-25.383,38.199-25.383,61.471c0,23.272,9.013,45.103,25.383,61.471l8.139,8.138
			c-21.474,27.406-19.615,67.265,5.61,92.49c13.164,13.164,30.717,20.414,49.425,20.414c15.842,0,30.844-5.216,43.065-14.802
			l5.958,5.958c16.947,16.947,39.209,25.421,61.47,25.421c22.262,0,44.524-8.474,61.471-25.421l226.017-226.017
			c16.368-16.368,25.384-38.201,25.384-61.471C511.963,175.82,502.948,153.989,486.581,137.622z M405.693,69.824
			c5.127-5.128,11.991-7.949,19.333-7.949c7.341,0,14.208,2.823,19.333,7.949c9.259,9.259,10.464,23.556,3.641,34.141h-76.45
			L405.693,69.824z M196.005,279.511l46.917-46.916h77.336l-46.917,46.916H196.005z M230.784,322.066l-47.222,47.222h-77.336
			l47.222-47.222H230.784z M285.478,190.039l43.519-43.519h77.336l-43.52,43.519H285.478z M42.595,312.911
			c0-11.906,4.587-23.049,12.918-31.38L281.53,55.514c17.302-17.3,45.456-17.302,62.761,0l7.765,7.765L63.277,352.055l-7.764-7.764
			C47.182,335.961,42.595,324.817,42.595,312.911z M107.93,444.92c-5.127,5.128-11.992,7.949-19.333,7.949
			c-7.342,0-14.208-2.821-19.333-7.949c-8.955-8.955-10.357-22.611-4.27-33.076h76.013L107.93,444.92z M456.489,230.474
			L230.472,456.491c-17.303,17.302-45.458,17.302-62.761,0l-5.585-5.585l135.068-135.068c0.003-0.003,0.006-0.006,0.008-0.009
			L450.905,162.13l5.583,5.583c8.331,8.331,12.918,19.475,12.918,31.38C469.407,210.999,464.82,222.143,456.489,230.474z"/>
	</g>
</svg>
